<svg width="512" height="512" viewBox="0 0 512 512" fill="none" xmlns="http://www.w3.org/2000/svg">
  <defs>
    <linearGradient id="bg" x1="64" y1="52" x2="456" y2="472" gradientUnits="userSpaceOnUse">
      <stop stop-color="#FFF2F8"/>
      <stop offset="0.34" stop-color="#FF9CCF"/>
      <stop offset="0.72" stop-color="#B986FF"/>
      <stop offset="1" stop-color="#3B1839"/>
    </linearGradient>
    <linearGradient id="glass" x1="135" y1="116" x2="362" y2="398" gradientUnits="userSpaceOnUse">
      <stop stop-color="#FFFDFE" stop-opacity="0.94"/>
      <stop offset="1" stop-color="#FFD8EC" stop-opacity="0.42"/>
    </linearGradient>
    <radialGradient id="glow" cx="0" cy="0" r="1" gradientUnits="userSpaceOnUse" gradientTransform="translate(262 170) rotate(90) scale(198)">
      <stop stop-color="#FFE7C6" stop-opacity="0.95"/>
      <stop offset="0.45" stop-color="#FFB7D8" stop-opacity="0.52"/>
      <stop offset="1" stop-color="#FFB7D8" stop-opacity="0"/>
    </radialGradient>
    <filter id="blur" x="84" y="73" width="342" height="350" filterUnits="userSpaceOnUse" color-interpolation-filters="sRGB">
      <feGaussianBlur stdDeviation="18"/>
    </filter>
  </defs>

  <rect width="512" height="512" rx="118" fill="#140A14"/>
  <rect x="20" y="20" width="472" height="472" rx="98" fill="url(#bg)"/>
  <rect x="20" y="20" width="472" height="472" rx="98" fill="black" fill-opacity="0.28"/>
  <circle cx="256" cy="142" r="134" fill="url(#glow)"/>

  <g filter="url(#blur)" opacity="0.72">
    <path d="M176 318C157 260 184 208 232 197C254 192 274 202 287 220C300 201 321 191 344 197C392 210 417 260 398 318C382 366 329 398 287 416C245 398 192 366 176 318Z" fill="#FFD4E9"/>
  </g>

  <path d="M174 306C156 252 182 208 224 198C249 191 270 206 287 228C304 206 326 191 350 198C393 209 418 252 400 306C385 350 337 385 287 409C237 385 189 350 174 306Z" fill="url(#glass)"/>
  <path d="M174 306C156 252 182 208 224 198C249 191 270 206 287 228C304 206 326 191 350 198C393 209 418 252 400 306C385 350 337 385 287 409C237 385 189 350 174 306Z" stroke="rgba(255,255,255,0.35)" stroke-width="10"/>

  <rect x="118" y="108" width="276" height="276" rx="72" fill="white" fill-opacity="0.07" stroke="white" stroke-opacity="0.2" stroke-width="4"/>

  <path d="M188 353V164H225L286 274L347 164H384V353H341V239L300 309H272L231 239V353H188Z" fill="#FFF9FD"/>
</svg>
